<svg id="SvgjsSvg1026" xmlns="http://www.w3.org/2000/svg" version="1.1" xmlns:xlink="http://www.w3.org/1999/xlink" xmlns:svgjs="http://svgjs.com/svgjs" width="47" height="47"><defs id="SvgjsDefs1027"></defs><path id="SvgjsPath1028" d="M732.434 1228L698.535 1228C695.447 1228 692.935 1230.51 692.935 1233.6L692.935 1268.9499999999998C692.935 1272.0299999999997 695.4469999999999 1274.5499999999997 698.535 1274.5499999999997L732.434 1274.5499999999997C735.5219999999999 1274.5499999999997 738.034 1272.0299999999997 738.034 1268.9499999999998L738.034 1233.6C738.034 1230.51 735.522 1228 732.434 1228ZM736.52 1268.95C736.52 1271.2 734.687 1273.03 732.434 1273.03L698.535 1273.03C696.281 1273.03 694.448 1271.2 694.448 1268.95L694.448 1233.6000000000001C694.448 1231.3500000000001 696.281 1229.5200000000002 698.535 1229.5200000000002L732.434 1229.5200000000002C734.687 1229.5200000000002 736.52 1231.3500000000001 736.52 1233.6000000000001ZM731.627 1232.04L699.342 1232.04C698.034 1232.04 696.971 1233.1 696.971 1234.4099999999999L696.971 1242.4799999999998C696.971 1243.7899999999997 698.034 1244.8499999999997 699.342 1244.8499999999997L731.627 1244.8499999999997C732.934 1244.8499999999997 733.9979999999999 1243.7899999999997 733.9979999999999 1242.4799999999998L733.9979999999999 1234.4099999999999C733.9979999999999 1233.1 732.934 1232.04 731.627 1232.04ZM732.485 1242.48C732.485 1242.95 732.1 1243.34 731.6270000000001 1243.34L699.3420000000001 1243.34C698.8690000000001 1243.34 698.4840000000002 1242.9499999999998 698.4840000000002 1242.48L698.4840000000002 1234.41C698.4840000000002 1233.94 698.8690000000001 1233.5500000000002 699.3420000000001 1233.5500000000002L731.6270000000001 1233.5500000000002C732.1 1233.5500000000002 732.485 1233.9400000000003 732.485 1234.41ZM731.627 1246.4L725.17 1246.4C723.8629999999999 1246.4 722.799 1247.46 722.799 1248.77L722.799 1268.1399999999999C722.799 1269.4499999999998 723.8629999999999 1270.5099999999998 725.17 1270.5099999999998L731.627 1270.5099999999998C732.934 1270.5099999999998 733.9979999999999 1269.4499999999998 733.9979999999999 1268.1399999999999L733.9979999999999 1248.77C733.9979999999999 1247.46 732.934 1246.4 731.627 1246.4ZM732.485 1268.14C732.485 1268.6100000000001 732.1 1269 731.6270000000001 1269L725.1700000000001 1269C724.6970000000001 1269 724.3120000000001 1268.61 724.3120000000001 1268.14L724.3120000000001 1248.7700000000002C724.3120000000001 1248.2900000000002 724.6970000000001 1247.9100000000003 725.1700000000001 1247.9100000000003L731.6270000000001 1247.9100000000003C732.1 1247.9100000000003 732.485 1248.2900000000004 732.485 1248.7700000000002ZM718.713 1259.31L712.256 1259.31C710.948 1259.31 709.885 1260.37 709.885 1261.6799999999998L709.885 1268.1399999999999C709.885 1269.4499999999998 710.948 1270.5099999999998 712.256 1270.5099999999998L718.713 1270.5099999999998C720.02 1270.5099999999998 721.084 1269.4499999999998 721.084 1268.1399999999999L721.084 1261.6799999999998C721.084 1260.37 720.02 1259.31 718.713 1259.31ZM705.799 1259.31L699.342 1259.31C698.034 1259.31 696.971 1260.37 696.971 1261.6799999999998L696.971 1268.1399999999999C696.971 1269.4499999999998 698.034 1270.5099999999998 699.342 1270.5099999999998L705.799 1270.5099999999998C707.106 1270.5099999999998 708.17 1269.4499999999998 708.17 1268.1399999999999L708.17 1261.6799999999998C708.17 1260.37 707.106 1259.31 705.799 1259.31ZM705.799 1246.4L699.342 1246.4C698.034 1246.4 696.971 1247.46 696.971 1248.77L696.971 1255.22C696.971 1256.53 698.034 1257.6000000000001 699.342 1257.6000000000001L705.799 1257.6000000000001C707.106 1257.6000000000001 708.17 1256.5300000000002 708.17 1255.22L708.17 1248.77C708.17 1247.46 707.106 1246.4 705.799 1246.4ZM718.713 1246.4L712.256 1246.4C710.948 1246.4 709.885 1247.46 709.885 1248.77L709.885 1255.22C709.885 1256.53 710.948 1257.6000000000001 712.256 1257.6000000000001L718.713 1257.6000000000001C720.02 1257.6000000000001 721.084 1256.5300000000002 721.084 1255.22L721.084 1248.77C721.084 1247.46 720.02 1246.4 718.713 1246.4ZM719.57 1268.14C719.57 1268.6100000000001 719.186 1269 718.7130000000001 1269L712.2560000000001 1269C711.7830000000001 1269 711.3980000000001 1268.61 711.3980000000001 1268.14L711.3980000000001 1261.68C711.3980000000001 1261.21 711.7830000000001 1260.8200000000002 712.2560000000001 1260.8200000000002L718.7130000000001 1260.8200000000002C719.186 1260.8200000000002 719.57 1261.2100000000003 719.57 1261.68ZM706.656 1268.14C706.656 1268.6100000000001 706.2719999999999 1269 705.799 1269L699.342 1269C698.869 1269 698.484 1268.61 698.484 1268.14L698.484 1261.68C698.484 1261.21 698.869 1260.8200000000002 699.342 1260.8200000000002L705.799 1260.8200000000002C706.2719999999999 1260.8200000000002 706.656 1261.2100000000003 706.656 1261.68ZM719.57 1255.22C719.57 1255.7 719.186 1256.08 718.7130000000001 1256.08L712.2560000000001 1256.08C711.7830000000001 1256.08 711.3980000000001 1255.6999999999998 711.3980000000001 1255.22L711.3980000000001 1248.77C711.3980000000001 1248.29 711.7830000000001 1247.91 712.2560000000001 1247.91L718.7130000000001 1247.91C719.186 1247.91 719.57 1248.2900000000002 719.57 1248.77ZM706.656 1255.22C706.656 1255.7 706.2719999999999 1256.08 705.799 1256.08L699.342 1256.08C698.869 1256.08 698.484 1255.6999999999998 698.484 1255.22L698.484 1248.77C698.484 1248.29 698.869 1247.91 699.342 1247.91L705.799 1247.91C706.2719999999999 1247.91 706.656 1248.2900000000002 706.656 1248.77ZM704.184 1251.24L703.327 1251.24L703.327 1250.38C703.327 1249.96 702.9879999999999 1249.63 702.57 1249.63C702.152 1249.63 701.8140000000001 1249.96 701.8140000000001 1250.38L701.8140000000001 1251.24L700.9560000000001 1251.24C700.5380000000001 1251.24 700.1990000000002 1251.58 700.1990000000002 1252C700.1990000000002 1252.41 700.5380000000002 1252.75 700.9560000000001 1252.75L701.8140000000001 1252.75L701.8140000000001 1253.61C701.8140000000001 1254.03 702.152 1254.37 702.57 1254.37C702.988 1254.37 703.327 1254.03 703.327 1253.61L703.327 1252.75L704.184 1252.75C704.602 1252.75 704.9409999999999 1252.41 704.9409999999999 1252C704.9409999999999 1251.58 704.6019999999999 1251.24 704.184 1251.24ZM717.099 1264.15L713.87 1264.15C713.452 1264.15 713.113 1264.49 713.113 1264.91C713.113 1265.3300000000002 713.4520000000001 1265.67 713.87 1265.67L717.099 1265.67C717.517 1265.67 717.855 1265.3300000000002 717.855 1264.91C717.855 1264.49 717.517 1264.15 717.099 1264.15ZM730.013 1256.08L726.784 1256.08C726.366 1256.08 726.028 1256.4199999999998 726.028 1256.84C726.028 1257.26 726.366 1257.6 726.784 1257.6L730.013 1257.6C730.431 1257.6 730.769 1257.26 730.769 1256.84C730.769 1256.4199999999998 730.431 1256.08 730.013 1256.08ZM717.099 1251.24L713.87 1251.24C713.452 1251.24 713.113 1251.58 713.113 1252C713.113 1252.41 713.4520000000001 1252.75 713.87 1252.75L717.099 1252.75C717.517 1252.75 717.855 1252.41 717.855 1252C717.855 1251.58 717.517 1251.24 717.099 1251.24ZM730.013 1259.31L726.784 1259.31C726.366 1259.31 726.028 1259.6499999999999 726.028 1260.07C726.028 1260.49 726.366 1260.82 726.784 1260.82L730.013 1260.82C730.431 1260.82 730.769 1260.49 730.769 1260.07C730.769 1259.6499999999999 730.431 1259.31 730.013 1259.31ZM715.484 1263.25C715.683 1263.25 715.879 1263.16 716.019 1263.02C716.16 1262.8799999999999 716.241 1262.69 716.241 1262.49C716.241 1262.29 716.16 1262.09 716.019 1261.95C715.879 1261.81 715.683 1261.73 715.484 1261.73C715.2860000000001 1261.73 715.09 1261.81 714.95 1261.95C714.808 1262.0900000000001 714.7280000000001 1262.29 714.7280000000001 1262.49C714.7280000000001 1262.69 714.8080000000001 1262.88 714.95 1263.02C715.09 1263.16 715.2860000000001 1263.25 715.484 1263.25ZM715.484 1266.58C715.2860000000001 1266.58 715.09 1266.6599999999999 714.95 1266.8C714.808 1266.94 714.7280000000001 1267.1299999999999 714.7280000000001 1267.33C714.7280000000001 1267.53 714.8080000000001 1267.73 714.95 1267.87C715.09 1268.01 715.2860000000001 1268.09 715.484 1268.09C715.6840000000001 1268.09 715.879 1268.01 716.019 1267.87C716.16 1267.7299999999998 716.241 1267.53 716.241 1267.33C716.241 1267.1299999999999 716.16 1266.9399999999998 716.019 1266.8C715.879 1266.6599999999999 715.684 1266.58 715.484 1266.58ZM704.72 1262.76C704.424 1262.47 703.945 1262.47 703.649 1262.76L702.57 1263.84L701.4910000000001 1262.76C701.195 1262.47 700.7160000000001 1262.47 700.421 1262.76C700.125 1263.06 700.125 1263.54 700.421 1263.83L701.5 1264.9099999999999L700.421 1265.9899999999998C700.125 1266.2799999999997 700.125 1266.7599999999998 700.421 1267.0599999999997C700.5690000000001 1267.2099999999998 700.7620000000001 1267.2799999999997 700.956 1267.2799999999997C701.15 1267.2799999999997 701.343 1267.2099999999998 701.491 1267.0599999999997L702.5699999999999 1265.9799999999998L703.6489999999999 1267.0599999999997C703.7969999999999 1267.2099999999998 703.9909999999999 1267.2799999999997 704.1839999999999 1267.2799999999997C704.3779999999998 1267.2799999999997 704.5719999999999 1267.2099999999998 704.7199999999998 1267.0599999999997C705.0149999999998 1266.7599999999998 705.0149999999998 1266.2799999999997 704.7199999999998 1265.9899999999998L703.6399999999998 1264.9099999999999L704.7199999999998 1263.83C705.0149999999998 1263.54 705.0149999999998 1263.06 704.7199999999998 1262.76Z " fill="#00acee" transform="matrix(1,0,0,1,-692,-1228)"></path></svg>