<svg id="SvgjsSvg1000" xmlns="http://www.w3.org/2000/svg" version="1.1" xmlns:xlink="http://www.w3.org/1999/xlink" xmlns:svgjs="http://svgjs.com/svgjs" width="14" height="12"><defs id="SvgjsDefs1001"></defs><path id="SvgjsPath1007" d="M37.9773 8.79777C37.9773 8.60444 37.9097 8.44019 37.7743 8.30486C37.6391 8.16954 37.4747 8.10193 37.281499999999994 8.10193L33.9811 8.10193C33.7878 8.10193 33.342299999999994 8.16954 33.207 8.30486C33.071600000000004 8.4401 33.004 8.60444 33.004 8.79777L33.004 9.95755L32.0136 9.95755L32.0136 19.0173L38.998999999999995 19.0173L38.998999999999995 9.95755L37.97729999999999 9.95755ZM29.4897 10.436C29.1707 10.755 29.0112 11.1368 29.0112 11.5813L29.0112 17.3936C29.0112 17.8383 29.1707 18.2201 29.4897 18.538999999999998C29.8086 18.857999999999997 30.1904 19.0173 30.634999999999998 19.0173L30.973899999999997 19.0173L30.973899999999997 9.95755L30.634999999999998 9.95755C30.190299999999997 9.95755 29.8085 10.117099999999999 29.4897 10.436ZM37.0183 9.95755L33.9943 9.95755L33.9943 9.02972L37.0183 9.02972ZM41.5229 10.4673C41.2039 10.148299999999999 40.8221 9.9888 40.3775 9.9888L40.0073 9.9888L40.0073 19.0173L40.3775 19.0173C40.8221 19.0173 41.2039 18.857999999999997 41.5229 18.538999999999998C41.8418 18.2201 42.0013 17.838299999999997 42.0013 17.3936L42.0013 11.6126C42.0013 11.168000000000001 41.8418 10.786200000000001 41.5229 10.4673Z " fill="#005a96" transform="matrix(1,0,0,1,-29,-8)"></path></svg>