<svg id="SvgjsSvg1029" xmlns="http://www.w3.org/2000/svg" version="1.1" xmlns:xlink="http://www.w3.org/1999/xlink" xmlns:svgjs="http://svgjs.com/svgjs" width="38" height="49"><defs id="SvgjsDefs1030"></defs><path id="SvgjsPath1031" d="M1065.27 1234.31L1060.34 1234.31L1060.34 1231.6399999999999C1061.29 1231.32 1061.97 1230.4299999999998 1061.97 1229.3799999999999C1061.97 1228.06 1060.9 1226.9899999999998 1059.58 1226.9899999999998L1036.82 1226.9899999999998C1035.5 1226.9899999999998 1034.4299999999998 1228.0599999999997 1034.4299999999998 1229.3799999999999C1034.4299999999998 1230.4299999999998 1035.11 1231.32 1036.06 1231.6399999999999L1036.06 1234.31L1031.1299999999999 1234.31C1030.26 1234.31 1029.55 1235.01 1029.55 1235.8799999999999L1029.55 1239.1299999999999C1029.55 1244.04 1033.54 1248.03 1038.44 1248.03C1038.45 1248.03 1038.46 1248.03 1038.47 1248.03C1040.2 1250.34 1042.74 1252.01 1045.66 1252.6399999999999C1045.24 1253.1799999999998 1045 1253.85 1045 1254.58C1045 1255.6499999999999 1045.52 1256.59 1046.32 1257.1699999999998C1046 1257.58 1045.81 1258.09 1045.81 1258.6499999999999L1045.81 1265.1499999999999C1045.81 1266.53 1044.69 1267.6499999999999 1043.32 1267.6499999999999L1040.07 1267.6499999999999C1039.2 1267.6499999999999 1038.49 1268.35 1038.49 1269.2199999999998L1038.49 1272.4699999999998C1038.49 1273.3399999999997 1039.2 1274.0499999999997 1040.07 1274.0499999999997L1056.33 1274.0499999999997C1057.1999999999998 1274.0499999999997 1057.8999999999999 1273.3399999999997 1057.8999999999999 1272.4699999999998L1057.8999999999999 1269.2199999999998C1057.8999999999999 1268.35 1057.1999999999998 1267.6499999999999 1056.33 1267.6499999999999L1053.08 1267.6499999999999C1051.6999999999998 1267.6499999999999 1050.59 1266.53 1050.59 1265.1499999999999L1050.59 1258.6499999999999C1050.59 1258.09 1050.3999999999999 1257.58 1050.08 1257.1699999999998C1050.8799999999999 1256.59 1051.3999999999999 1255.6499999999999 1051.3999999999999 1254.58C1051.3999999999999 1253.85 1051.1499999999999 1253.1799999999998 1050.7399999999998 1252.6399999999999C1053.6599999999999 1252.0099999999998 1056.1899999999998 1250.34 1057.9199999999998 1248.03C1057.9399999999998 1248.03 1057.9399999999998 1248.03 1057.9599999999998 1248.03C1062.86 1248.03 1066.85 1244.04 1066.85 1239.1299999999999L1066.85 1235.8799999999999C1066.85 1235.01 1066.1399999999999 1234.31 1065.27 1234.31ZM1048.2 1251.38C1042.3400000000001 1251.38 1037.5800000000002 1246.6200000000001 1037.5800000000002 1240.7600000000002L1037.5800000000002 1231.7600000000002L1058.8200000000002 1231.7600000000002L1058.8200000000002 1240.7600000000002C1058.8200000000002 1246.6200000000001 1054.0500000000002 1251.38 1048.2000000000003 1251.38ZM1031.08 1239.13L1031.08 1235.88C1031.08 1235.8500000000001 1031.1 1235.8300000000002 1031.1299999999999 1235.8300000000002L1036.06 1235.8300000000002L1036.06 1240.7600000000002C1036.06 1242.8100000000002 1036.57 1244.7400000000002 1037.47 1246.4400000000003C1033.8600000000001 1245.9600000000003 1031.08 1242.8700000000003 1031.08 1239.1300000000003ZM1056.33 1269.17C1056.36 1269.17 1056.3799999999999 1269.19 1056.3799999999999 1269.22L1056.3799999999999 1272.47C1056.3799999999999 1272.5 1056.36 1272.52 1056.33 1272.52L1040.07 1272.52C1040.04 1272.52 1040.02 1272.5 1040.02 1272.47L1040.02 1269.22C1040.02 1269.19 1040.04 1269.17 1040.07 1269.17ZM1036.82 1228.51L1059.58 1228.51C1060.06 1228.51 1060.4399999999998 1228.9 1060.4399999999998 1229.3799999999999C1060.4399999999998 1229.85 1060.0599999999997 1230.2399999999998 1059.58 1230.2399999999998L1036.82 1230.2399999999998C1036.34 1230.2399999999998 1035.95 1229.8499999999997 1035.95 1229.3799999999999C1035.95 1228.8999999999999 1036.3400000000001 1228.51 1036.82 1228.51ZM1049.06 1258.65L1049.06 1265.15C1049.06 1266.0900000000001 1049.3899999999999 1266.96 1049.9299999999998 1267.65L1046.4699999999998 1267.65C1047.0099999999998 1266.96 1047.3399999999997 1266.0900000000001 1047.3399999999997 1265.15L1047.3399999999997 1258.65C1047.3399999999997 1258.17 1047.7199999999998 1257.7900000000002 1048.1999999999996 1257.7900000000002C1048.6799999999996 1257.7900000000002 1049.0599999999995 1258.1700000000003 1049.0599999999995 1258.65ZM1049.88 1254.58C1049.88 1255.51 1049.1200000000001 1256.26 1048.2 1256.26C1047.27 1256.26 1046.52 1255.51 1046.52 1254.58C1046.52 1253.6599999999999 1047.27 1252.9099999999999 1048.2 1252.9099999999999C1049.1200000000001 1252.9099999999999 1049.88 1253.6599999999999 1049.88 1254.58ZM1065.32 1239.13C1065.32 1242.8700000000001 1062.53 1245.96 1058.9299999999998 1246.44C1059.83 1244.74 1060.34 1242.81 1060.34 1240.76L1060.34 1235.83L1065.27 1235.83C1065.3 1235.83 1065.32 1235.85 1065.32 1235.8799999999999Z " fill="#00acee" transform="matrix(1,0,0,1,-1029,-1226)"></path></svg>