<svg id="SvgjsSvg1000" xmlns="http://www.w3.org/2000/svg" version="1.1" xmlns:xlink="http://www.w3.org/1999/xlink" xmlns:svgjs="http://svgjs.com/svgjs" width="64" height="47"><defs id="SvgjsDefs1001"><clipPath id="SvgjsClipPath1010"><path id="SvgjsPath1009" d="M352.5 1259.26C355.395 1259.26 357.742 1261.61 357.742 1264.5C357.742 1267.4 355.39500000000004 1269.74 352.5 1269.74C349.605 1269.74 347.258 1267.4 347.258 1264.5C347.258 1261.61 349.60499999999996 1259.26 352.5 1259.26Z " fill="#ffffff"></path></clipPath><clipPath id="SvgjsClipPath1014"><path id="SvgjsPath1013" d="M368.5 1240.26C371.395 1240.26 373.742 1242.61 373.742 1245.5C373.742 1248.39 371.39500000000004 1250.74 368.5 1250.74C365.605 1250.74 363.258 1248.39 363.258 1245.5C363.258 1242.61 365.60499999999996 1240.26 368.5 1240.26Z " fill="#ffffff"></path></clipPath><clipPath id="SvgjsClipPath1018"><path id="SvgjsPath1017" d="M391.5 1249.26C394.395 1249.26 396.742 1251.6 396.742 1254.5C396.742 1257.39 394.39500000000004 1259.74 391.5 1259.74C388.605 1259.74 386.258 1257.39 386.258 1254.5C386.258 1251.6 388.60499999999996 1249.26 391.5 1249.26Z " fill="#ffffff"></path></clipPath><clipPath id="SvgjsClipPath1025"><path id="SvgjsPath1024" d="M405.5 1223.26C408.395 1223.26 410.742 1225.61 410.742 1228.5C410.742 1231.39 408.39500000000004 1233.74 405.5 1233.74C402.605 1233.74 400.258 1231.39 400.258 1228.5C400.258 1225.61 402.60499999999996 1223.26 405.5 1223.26Z " fill="#ffffff"></path></clipPath></defs><path id="SvgjsPath1007" d="M352.5 1259.26C355.395 1259.26 357.742 1261.61 357.742 1264.5C357.742 1267.4 355.39500000000004 1269.74 352.5 1269.74C349.605 1269.74 347.258 1267.4 347.258 1264.5C347.258 1261.61 349.60499999999996 1259.26 352.5 1259.26Z " fill="#000000" transform="matrix(1,0,0,1,-347,-1223)"></path><path id="SvgjsPath1008" d="M352.5 1259.26C355.395 1259.26 357.742 1261.61 357.742 1264.5C357.742 1267.4 355.39500000000004 1269.74 352.5 1269.74C349.605 1269.74 347.258 1267.4 347.258 1264.5C347.258 1261.61 349.60499999999996 1259.26 352.5 1259.26Z " fill-opacity="1" fill="#ffffff" stroke-dasharray="0" stroke-linejoin="round" stroke-linecap="round" stroke-opacity="1" stroke="#00acee" stroke-miterlimit="50" stroke-width="4" clip-path="url(&quot;#SvgjsClipPath1010&quot;)" transform="matrix(1,0,0,1,-347,-1223)"></path><path id="SvgjsPath1011" d="M368.5 1240.26C371.395 1240.26 373.742 1242.61 373.742 1245.5C373.742 1248.39 371.39500000000004 1250.74 368.5 1250.74C365.605 1250.74 363.258 1248.39 363.258 1245.5C363.258 1242.61 365.60499999999996 1240.26 368.5 1240.26Z " fill="#000000" transform="matrix(1,0,0,1,-347,-1223)"></path><path id="SvgjsPath1012" d="M368.5 1240.26C371.395 1240.26 373.742 1242.61 373.742 1245.5C373.742 1248.39 371.39500000000004 1250.74 368.5 1250.74C365.605 1250.74 363.258 1248.39 363.258 1245.5C363.258 1242.61 365.60499999999996 1240.26 368.5 1240.26Z " fill-opacity="1" fill="#ffffff" stroke-dasharray="0" stroke-linejoin="round" stroke-linecap="round" stroke-opacity="1" stroke="#00acee" stroke-miterlimit="50" stroke-width="4" clip-path="url(&quot;#SvgjsClipPath1014&quot;)" transform="matrix(1,0,0,1,-347,-1223)"></path><path id="SvgjsPath1015" d="M391.5 1249.26C394.395 1249.26 396.742 1251.6 396.742 1254.5C396.742 1257.39 394.39500000000004 1259.74 391.5 1259.74C388.605 1259.74 386.258 1257.39 386.258 1254.5C386.258 1251.6 388.60499999999996 1249.26 391.5 1249.26Z " fill="#000000" transform="matrix(1,0,0,1,-347,-1223)"></path><path id="SvgjsPath1016" d="M391.5 1249.26C394.395 1249.26 396.742 1251.6 396.742 1254.5C396.742 1257.39 394.39500000000004 1259.74 391.5 1259.74C388.605 1259.74 386.258 1257.39 386.258 1254.5C386.258 1251.6 388.60499999999996 1249.26 391.5 1249.26Z " fill-opacity="1" fill="#ffffff" stroke-dasharray="0" stroke-linejoin="round" stroke-linecap="round" stroke-opacity="1" stroke="#00acee" stroke-miterlimit="50" stroke-width="4" clip-path="url(&quot;#SvgjsClipPath1018&quot;)" transform="matrix(1,0,0,1,-347,-1223)"></path><path id="SvgjsPath1019" d="M355.969 1262.31L354.406 1261.06L364.781 1248.06L366.344 1249.31Z " fill="#00acee" transform="matrix(1,0,0,1,-347,-1223)"></path><path id="SvgjsPath1020" d="M371.726 1248.5L372.399 1246.62L387.774 1252.12L387.101 1254Z " fill="#00acee" transform="matrix(1,0,0,1,-347,-1223)"></path><path id="SvgjsPath1021" d="M395.347 1251.48L393.52799999999996 1250.65L402.40299999999996 1231.27L404.222 1232.1Z " fill="#00acee" transform="matrix(1,0,0,1,-347,-1223)"></path><path id="SvgjsPath1022" d="M405.5 1223.26C408.395 1223.26 410.742 1225.61 410.742 1228.5C410.742 1231.39 408.39500000000004 1233.74 405.5 1233.74C402.605 1233.74 400.258 1231.39 400.258 1228.5C400.258 1225.61 402.60499999999996 1223.26 405.5 1223.26Z " fill="#000000" transform="matrix(1,0,0,1,-347,-1223)"></path><path id="SvgjsPath1023" d="M405.5 1223.26C408.395 1223.26 410.742 1225.61 410.742 1228.5C410.742 1231.39 408.39500000000004 1233.74 405.5 1233.74C402.605 1233.74 400.258 1231.39 400.258 1228.5C400.258 1225.61 402.60499999999996 1223.26 405.5 1223.26Z " fill-opacity="1" fill="#ffffff" stroke-dasharray="0" stroke-linejoin="round" stroke-linecap="round" stroke-opacity="1" stroke="#00acee" stroke-miterlimit="50" stroke-width="4" clip-path="url(&quot;#SvgjsClipPath1025&quot;)" transform="matrix(1,0,0,1,-347,-1223)"></path></svg>
