<svg id="SvgjsSvg1008" xmlns="http://www.w3.org/2000/svg" version="1.1" xmlns:xlink="http://www.w3.org/1999/xlink" xmlns:svgjs="http://svgjs.com/svgjs" width="34" height="33"><defs id="SvgjsDefs1009"></defs><path id="SvgjsPath1010" d="M1217.06 473.01C1216.6299999999999 472.34999999999997 1216.04 471.834 1215.36 471.491C1215.59 468.404 1214.6499999999999 465.824 1213.2299999999998 465.699L1213.1799999999998 465.695C1213.11 463.085 1212.2699999999998 460.493 1210.6999999999998 458.275C1208.1799999999998 454.70099999999996 1204.12 452.568 1199.84 452.568C1195.57 452.568 1191.51 454.70099999999996 1188.98 458.275C1187.42 460.495 1186.58 463.08799999999997 1186.51 465.7L1186.46 465.704C1185.01 465.831 1184.06 468.493 1184.3400000000001 471.648C1184.6100000000001 474.80400000000003 1186.0100000000002 477.259 1187.46 477.132L1187.46 477.132L1192.19 476.718C1192.5900000000001 476.683 1192.96 476.49100000000004 1193.21 476.184C1193.47 475.87800000000004 1193.6000000000001 475.482 1193.56 475.084L1192.82 466.66C1192.75 465.83000000000004 1192.02 465.216 1191.1799999999998 465.29L1189.9299999999998 465.40000000000003C1190.0499999999997 463.593 1190.6599999999999 461.817 1191.7699999999998 460.23900000000003C1193.6799999999998 457.53000000000003 1196.6199999999997 455.97700000000003 1199.8399999999997 455.97700000000003C1203.0599999999997 455.97700000000003 1205.9999999999998 457.53000000000003 1207.9199999999996 460.23900000000003C1209.0299999999995 461.81500000000005 1209.6399999999996 463.59000000000003 1209.7499999999995 465.394L1208.4999999999995 465.285C1207.6699999999996 465.211 1206.9399999999996 465.82500000000005 1206.8699999999994 466.65500000000003L1206.1299999999994 475.079C1206.0899999999995 475.47700000000003 1206.2199999999993 475.873 1206.4699999999993 476.17900000000003C1206.7299999999993 476.48600000000005 1207.0999999999995 476.67800000000005 1207.4999999999993 476.713L1212.2199999999993 477.127L1212.2199999999993 477.127C1213.2899999999993 477.22 1214.3199999999993 475.911 1214.9099999999994 473.959C1214.9999999999993 474.053 1215.0899999999995 474.145 1215.1599999999994 474.257C1215.5599999999995 474.865 1215.6299999999994 475.628 1215.3399999999995 476.296L1213.8399999999995 479.746C1213.3799999999994 480.794 1212.3499999999995 481.471 1211.1999999999994 481.471L1209.1799999999994 481.471C1209.0199999999993 480.94100000000003 1208.5399999999993 480.548 1207.9599999999994 480.548L1204.2099999999994 480.548C1203.4899999999993 480.548 1202.9099999999994 481.13100000000003 1202.9099999999994 481.85L1202.9099999999994 483.365C1202.9099999999994 484.084 1203.4899999999993 484.66700000000003 1204.2099999999994 484.66700000000003L1207.9599999999994 484.66700000000003C1208.5399999999993 484.66700000000003 1209.0199999999993 484.27400000000006 1209.1799999999994 483.744L1211.1999999999994 483.744C1213.2499999999993 483.744 1215.1099999999994 482.53000000000003 1215.9199999999994 480.651L1217.4199999999994 477.201C1218.0199999999993 475.82800000000003 1217.8899999999994 474.261 1217.0599999999995 473.01000000000005Z " fill="#00b0f2" transform="matrix(1,0,0,1,-1184,-452)"></path></svg>