<svg id="SvgjsSvg1000" xmlns="http://www.w3.org/2000/svg" version="1.1" xmlns:xlink="http://www.w3.org/1999/xlink" xmlns:svgjs="http://svgjs.com/svgjs" width="22" height="22"><defs id="SvgjsDefs1001"></defs><path id="SvgjsPath1007" d="M208.695 424.516L207.225 425.98600000000005L211.95 430.71100000000007L222.45 420.21100000000007L220.98 418.74100000000004L211.95 427.771ZM223.5 426.511C223.5 432.286 218.775 437.011 213 437.011C207.225 437.011 202.5 432.286 202.5 426.511C202.5 420.73600000000005 207.225 416.011 213 416.011C214.365 416.011 215.73 416.326 216.99 416.74600000000004L215.31 418.42600000000004C214.575 418.21600000000007 213.84 418.11100000000005 213 418.11100000000005C208.38 418.11100000000005 204.6 421.891 204.6 426.511C204.6 431.13100000000003 208.38 434.911 213 434.911C217.62 434.911 221.4 431.13100000000003 221.4 426.511Z " fill="#00acee" transform="matrix(1,0,0,1,-202,-416)"></path></svg>