<svg id="SvgjsSvg1000" xmlns="http://www.w3.org/2000/svg" version="1.1" xmlns:xlink="http://www.w3.org/1999/xlink" xmlns:svgjs="http://svgjs.com/svgjs" width="29" height="29"><defs id="SvgjsDefs1001"></defs><path id="SvgjsPath1007" d="M816.323 482.639L809.436 475.752C811.143 473.67 812.172 471.004 812.172 468.098C812.172 461.433 806.764 456.02500000000003 800.0980000000001 456.02500000000003C793.427 456.02500000000003 788.0250000000001 461.43300000000005 788.0250000000001 468.098C788.0250000000001 474.764 793.4270000000001 480.172 800.0980000000001 480.172C803.004 480.172 805.6640000000001 479.149 807.7460000000001 477.44100000000003L814.633 484.32300000000004C815.101 484.79100000000005 815.855 484.79100000000005 816.3230000000001 484.32300000000004C816.791 483.86100000000005 816.791 483.10100000000006 816.3230000000001 482.639ZM800.098 477.769C794.76 477.769 790.4219999999999 473.43 790.4219999999999 468.098C790.4219999999999 462.766 794.7599999999999 458.422 800.098 458.422C805.4309999999999 458.422 809.775 462.766 809.775 468.098C809.775 473.43 805.4309999999999 477.769 800.098 477.769Z " fill="#00b0f2" transform="matrix(1,0,0,1,-788,-456)"></path></svg>